<?xml version="1.0" encoding="UTF-8"?>
<svg id="Layer_1" data-name="Layer 1" xmlns="http://www.w3.org/2000/svg" version="1.1" viewBox="0 0 921.5 276.9">
  <defs>
    <style>
      .cls-1 {
        fill: #000;
        stroke-width: 0px;
      }
    </style>
  </defs>
  <path class="cls-1" d="M545.5,174.4h-35.5v5.4c10.1.4,13.2,2.5,14.1,8.5.4,4.1,1.1,10.6,1.1,23.1v28h-.4l-55.6-65h-25.1v5.4c6.1.4,9.5,1.5,12.2,5,2.7,3.4,3,5.1,3,14.8v29.8c0,12.2-.8,18.6-1.3,23.3-.7,6.1-4.3,8.1-12.1,8.6v5.4h35.4v-5.4c-10.1-.6-13.1-2.7-13.8-9.1-.4-4.3-1-10.6-1-22.8v-32.6h.3l58.9,71.3h7v-56.5c0-12.5.6-19,1.1-23.4.7-6,4-7.9,11.8-8.2v-5.4ZM380.3,221.1v-33.6c0-3.1.3-4.7,1.3-5.6,1-.8,3-1.5,7-1.5,8.9,0,18.5,5.3,18.5,20s-2.1,12.8-7.2,16.9c-3.3,2.7-7.9,3.8-14.3,3.8h-5.2ZM439.4,263c-3.3-1.1-6.1-2.5-9.3-6.1-3-3.1-5.8-7.1-10.9-14.8-4.3-6.5-9.8-15.9-11.9-20.2,9.9-4.1,17.7-11.2,17.7-23.5s-4-15.2-9.6-19c-5.7-3.7-12.8-5-24.7-5h-38.7v5.4c10.8.8,11.9,2,11.9,13.5v54.3c0,11.5-1.4,12.7-12.5,13.5v5.6h41.5v-5.6c-11.1-.8-12.4-2-12.4-13.5v-20.6h3.7c5.6,0,7.9,1.7,10.2,5.7,4.1,7.1,8.4,15.3,12.7,21.7,6.1,8.9,11.7,12.5,27,13.4,1.7,0,3.4.1,4.7.1,0,0,.8-4.9.8-4.9ZM336.6,242.1c-2.4,6.1-5,10.8-7.5,13.6-3.3,3.5-8.2,4.6-16.2,4.6s-11.1-.3-13.8-1.5c-2.7-1.5-3.4-4.7-3.4-11.4v-24.5h10.8c12.1,0,13.5.6,15.3,10.9h5.7v-29h-5.7c-1.8,9.9-3.3,10.8-15.5,10.8h-10.6v-29.9c0-4.6.4-4.8,5.6-4.8h8.6c8.4,0,12.2,1,14.3,3.7,2.1,2.7,3.7,6.7,5.1,12.1l5.7-.8c-.6-8.5-1.3-18.6-1.4-21.3h-66.6v5.4c10.6.8,11.9,1.5,11.9,13.6v54.2c0,11.7-1.3,12.7-13.8,13.5v5.6h72.1c1.3-4.1,4.1-17.7,5-23.5l-5.6-1ZM251.6,239.4c-3,8.4-5.4,12.8-8.6,15.7-4,4-12.2,4.8-25.3,4.8s-14.6-.3-19.3-.8c18.3-28,36.6-54.9,55.1-82.4l-1.1-2.2h-57.5c-4.3,0-5.8-.3-7.8-3.5h-4.3c-.3,7-1.1,17-1.7,28.1h5.4c1.5-6.5,3.7-10.6,5.6-13.1,2.2-3.3,4.8-4.8,19.2-4.8h19.9c-18.6,27.7-37.5,55.5-56.4,82.9l1.7,2.7h75.2c1.5-5.1,4.3-19.3,5.4-26l-5.4-1.4h0ZM173,174.4h-36.1v5.4c9.9.6,13.2,2.8,14.1,7.9.7,4.3,1.3,9.6,1.3,20.7v13.5c0,23.5-7.5,37.2-25.1,37.2s-24.2-11.9-24.2-34.1v-30.9c0-12.5,1.3-13.5,12.1-14.3v-5.4h-41.3v5.4c11.1,1,12.4,1.8,12.4,14.3v33.8c0,16.7,4.1,27.4,12.4,33.6,6.7,5.3,15.3,7.2,24.5,7.2s19.5-3.4,26.1-10.2c8.2-8.5,10.8-20.7,10.8-36.5v-13.6c0-11.1.4-16.3,1-20.6.7-5.3,4.3-7.7,12.2-8.1v-5.3ZM70.3,241.4c-2.4,7-5.1,11.5-7.7,14.3-3.4,3.7-8.4,4.6-14.6,4.6s-8.9-.3-11.7-1.4c-2.8-1.3-3.4-4.1-3.4-10.9v-54.5c0-11.9,1.1-12.7,12.5-13.6v-5.4H3.5v5.4c11.4,1,12.7,1.8,12.7,13.6v54.1c0,11.8-1.4,12.8-13.6,13.6v5.6h68.2c1.1-4,4.1-18,5.3-23.8l-5.7-1.4ZM919,56.2c-.7-9.1-1.5-21.2-1.5-27.3h-3.8c-2.2,2.7-4,3.5-7.8,3.5h-56.9c-4.1,0-5.8-.4-7.9-3.5h-3.8c-.3,7.4-1.1,17.6-1.7,27.7h5.7c1.8-6.8,3.3-11.5,5.4-13.8,2-2.5,4.4-4,15.9-4h6.4v66.8c0,11.7-1.3,12.7-13.8,13.5v5.6h45.1v-5.6c-13.1-.8-14.5-2-14.5-13.5V38.8h7.8c8.9,0,11.9.8,14.3,3.7,2.2,2.4,4,6.7,5.6,14.1l5.7-.4h0ZM782.2,8.2c-4.8,0-8.9,4-8.9,9.1s4.1,8.9,8.9,8.9,9.1-4.1,9.1-8.9-3.8-9.1-8.9-9.1c0,0-.2,0-.2,0ZM811.9,8.2c-4.8,0-9.1,4-9.1,9.1s4.3,8.9,9.1,8.9,9.1-4.1,9.1-8.9-4-9.1-8.9-9.1c0,0-.2,0-.2,0ZM803.4,86.4h-23.4c3.8-10.6,7.7-21.6,11.8-32.3h.4l11.2,32.3ZM843.7,124.8v-5.6c-9.3-1-11.1-2.4-15.6-14.6-9.2-24.2-18.3-49.8-27.3-74.2l-7.1,1.7-29.1,73c-4.7,11.9-6.5,13.1-16,14.2v5.6h32.2v-5.6c-10.2-1-10.8-2.7-8.5-9.9,1.7-5.6,3.5-10.6,5.1-15h28.5c2.4,6,4.6,12.2,6.3,16.7,1.8,5.8,1,7.1-7.4,8.2v5.6h38.9,0ZM758,56.2c-.7-9.1-1.5-21.2-1.5-27.3h-3.8c-2.2,2.7-4,3.5-7.8,3.5h-56.9c-4.1,0-5.8-.4-7.9-3.5h-3.8c-.3,7.4-1.1,17.6-1.7,27.7h5.7c1.8-6.8,3.3-11.5,5.4-13.8,2-2.5,4.4-4,15.9-4h6.4v66.8c0,11.7-1.3,12.7-13.8,13.5v5.6h45.1v-5.6c-13.1-.8-14.5-2-14.5-13.5V38.8h7.8c8.9,0,11.9.8,14.3,3.7,2.2,2.4,4,6.7,5.6,14.1,0,0,5.7-.4,5.7-.4ZM663.6,124.7v-5.6c-11.1-.8-12.2-1.7-12.2-13.5v-54.2c0-11.8,1.1-12.7,12.2-13.6v-5.4h-41.6v5.4c11.2,1,12.4,1.8,12.4,13.6v54.2c0,11.8-1.3,12.7-12.4,13.5v5.6s41.6,0,41.6,0ZM605.7,54.5c-1.3-9.3-2.1-15.5-2.7-20.6-3.5-1.1-11.2-3.5-19.5-3.5-19.8,0-31.8,11.9-31.8,27s11.4,21.9,24.5,28.4c10.8,5.4,17.6,10.6,17.6,19.6s-5.7,15.3-15,15.3c-14.1,0-21.6-15.3-24.1-24l-5.6,1.5c1.1,8.6,3,20,4.1,23.4,1.7.8,4.3,2,8.1,3.1,4,1.3,8.9,2.1,14.5,2.1,20.3,0,33.9-12.4,33.9-28.4s-11.2-22.1-25.3-29c-12.1-5.8-17.9-10.5-17.9-19s5.6-14.1,14.5-14.1,16.3,10.2,19,19.2c0,0,5.4-1,5.4-1ZM485,79.2v-33.6c0-3.1.3-4.7,1.3-5.6,1-.8,3-1.5,7-1.5,8.9,0,18.5,5.3,18.5,20s-2.1,12.8-7.2,16.9c-3.3,2.7-7.9,3.8-14.3,3.8,0,0-5.2,0-5.2,0ZM544.1,121c-3.3-1.1-6.1-2.5-9.3-6.1-3-3.1-5.8-7.1-10.9-14.8-4.3-6.5-9.8-15.9-11.9-20.2,9.9-4.1,17.7-11.2,17.7-23.5s-4-15.2-9.6-19c-5.7-3.7-12.8-5-24.7-5h-38.7v5.4c10.8.8,11.9,2,11.9,13.5v54.3c0,11.5-1.4,12.7-12.5,13.5v5.6h41.5v-5.6c-11.1-.8-12.4-2-12.4-13.5v-20.6h3.7c5.6,0,7.9,1.7,10.2,5.7,4.1,7.1,8.4,15.3,12.7,21.7,6.1,8.9,11.7,12.5,27,13.4,1.7,0,3.4.1,4.7.1,0,0,.8-4.9.8-4.9ZM439.2,100.2c-2.4,6.1-5,10.8-7.5,13.6-3.3,3.5-8.2,4.6-16.2,4.6s-11.1-.3-13.8-1.5c-2.7-1.5-3.4-4.7-3.4-11.4v-24.5h10.8c12.1,0,13.5.6,15.3,10.9h5.7v-29h-5.6c-1.8,9.9-3.3,10.8-15.5,10.8h-10.6v-29.9c0-4.6.4-4.8,5.6-4.8h8.6c8.4,0,12.2,1,14.3,3.7s3.7,6.7,5.1,12.1l5.7-.8c-.6-8.5-1.3-18.6-1.4-21.3h-66.6v5.4c10.6.8,11.9,1.5,11.9,13.6v54.2c0,11.7-1.3,12.7-13.8,13.5v5.6h72.1c1.3-4.1,4.1-17.7,5-23.5,0,0-5.6-1-5.6-1ZM362.7,32.5h-33.8v5.6c11.7,1.3,11.9,3,8.8,11.9-3.5,11.4-10.8,30.5-19.2,52.5h-.4c-6.1-15.6-17.2-44.3-21.4-55.9-2.2-6.1-2.1-7.4,8.2-8.5v-5.6h-40.2v5.6c8.6.8,11.1,2.4,15.2,12.7,6.8,16.4,19.8,49.7,29.2,75.5h7.1c10.9-29.2,24.7-62.9,28.8-72.7,5.6-13.1,8.2-14.5,17.6-15.5v-5.6ZM257.5,124.7v-5.6c-11.1-.8-12.2-1.7-12.2-13.5v-54.2c0-11.8,1.1-12.7,12.2-13.6v-5.4h-41.6v5.4c11.2,1,12.4,1.8,12.4,13.6v54.2c0,11.8-1.3,12.7-12.4,13.5v5.6h41.6ZM207.7,32.5h-35.5v5.4c10.1.4,13.2,2.5,14.1,8.5.4,4.1,1.1,10.6,1.1,23.1v28h-.4l-55.6-65h-25.1v5.4c6.1.4,9.5,1.5,12.2,5,2.7,3.4,3,5.1,3,14.8v29.8c0,12.2-.8,18.6-1.3,23.3-.7,6.1-4.3,8.1-12.1,8.6v5.4h35.4v-5.4c-10.1-.6-13.1-2.7-13.8-9.1-.4-4.3-1-10.6-1-22.8v-32.6h.3l58.9,71.3h7v-56.5c0-12.5.6-19,1.1-23.4.7-6,4-7.9,11.8-8.2v-5.4s0,0,0,0ZM101.9,32.5h-36.1v5.4c9.9.6,13.2,2.8,14.1,7.9.7,4.3,1.3,9.6,1.3,20.7v13.5c0,23.5-7.5,37.2-25.1,37.2s-24.2-11.9-24.2-34.1v-30.9c0-12.5,1.3-13.5,12.1-14.3v-5.4H2.5v5.4c11.1,1,12.4,1.8,12.4,14.3v33.8c0,16.7,4.1,27.4,12.4,33.6,6.7,5.3,15.3,7.2,24.5,7.2s19.5-3.4,26.1-10.2c8.2-8.5,10.8-20.7,10.8-36.5v-13.6c0-11.1.4-16.3,1-20.6.7-5.3,4.3-7.7,12.2-8.1,0,0,0-5.3,0-5.3Z"/>
</svg>