<svg width="90" height="31" viewBox="0 0 90 31" fill="none" xmlns="http://www.w3.org/2000/svg">
<path d="M0.239136 12.9409C0.239136 5.92168 3.4186 1.30566 10.2475 1.30566C16.532 1.30566 19.5182 3.98248 19.8661 10.3057H14.3578C14.1645 7.28091 12.96 5.92168 10.2475 5.92168C6.5237 5.92168 5.78609 8.63716 5.78609 12.9409C5.78609 17.2446 6.5237 19.9601 10.2475 19.9601C13.1176 19.9601 14.1645 18.6425 14.3578 15.6147H19.8661C19.4408 21.7833 16.2197 24.5761 10.2088 24.5761C3.07061 24.5791 0.239136 20.2337 0.239136 12.9409Z" fill="#0F0035"/>
<path d="M23.8992 9.03871C23.8992 2.09386 28.9792 0 33.3632 0C38.0952 0 42.8272 1.97787 42.8272 9.03871C42.8272 16.0996 37.7472 18.1161 33.3632 18.1161C28.6312 18.1161 23.8992 16.0996 23.8992 9.03871ZM37.4349 9.03871C37.4349 5.58562 35.9597 4.22937 33.3632 4.22937C30.7667 4.22937 29.2885 5.58562 29.2885 9.03871C29.2885 12.4918 30.7637 13.8481 33.3632 13.8481C35.9627 13.8481 37.4349 12.4888 37.4349 9.03871Z" fill="#0F0035"/>
<path d="M48.4902 1.73145H53.8825V19.6899H65.4018V24.1899H48.4902V1.73145Z" fill="#0F0035"/>
<path d="M71.7606 8.19727H79.1695C86.6943 8.19727 89.7607 11.9597 89.7607 19.4072C89.7607 26.3877 86.6199 30.6557 79.1695 30.6557H71.7606V8.19727ZM77.1529 26.1557H79.1695C83.2412 26.1557 84.2108 23.8685 84.2108 19.4072C84.2108 14.9458 83.2412 12.6973 79.1695 12.6973H77.1529V26.1557Z" fill="#0F0035"/>
</svg>
